<?xml version="1.0" standalone="no"?>
<!DOCTYPE svg PUBLIC "-//W3C//DTD SVG 20010904//EN"
 "http://www.w3.org/TR/2001/REC-SVG-20010904/DTD/svg10.dtd">
<svg version="1.0" xmlns="http://www.w3.org/2000/svg"
 width="1362.000000pt" height="2400.000000pt" viewBox="0 0 1362.000000 2400.000000"
 preserveAspectRatio="xMidYMid meet">

<g transform="translate(0.000000,2400.000000) scale(0.100000,-0.100000)"
fill="#EDEFEE" stroke="none">
<path d="M5500 23989 c-74 -4 -283 -5 -465 -3 -181 2 -366 0 -410 -5 -43 -4
-129 -4 -190 1 -98 7 -112 6 -126 -10 -19 -20 -38 -212 -46 -475 -7 -205 -9
-202 131 -194 61 4 105 11 112 19 7 7 31 58 52 113 22 55 53 129 69 164 l29
65 110 -3 c60 -1 111 -5 114 -8 3 -2 7 -221 9 -486 5 -745 5 -836 -1 -843 -4
-3 -48 -16 -99 -29 -52 -13 -99 -31 -105 -40 -17 -22 -29 -184 -17 -204 9 -14
62 -16 449 -18 295 -1 443 2 451 9 18 14 18 202 1 216 -7 5 -57 20 -110 32
l-96 22 -7 67 c-7 79 -7 39 0 731 l6 555 108 3 c79 2 111 -1 118 -10 5 -7 38
-83 72 -170 34 -86 71 -164 82 -173 16 -16 31 -17 116 -11 54 4 103 12 110 18
22 18 17 397 -6 531 -10 60 -23 113 -29 119 -6 6 -59 14 -119 19 -119 9 -121
9 -313 -2z"/>
<path d="M209 23969 c-19 -19 -34 -180 -19 -208 7 -13 34 -24 87 -36 43 -9 83
-18 89 -20 17 -5 20 -148 20 -794 l-1 -584 -77 -26 c-43 -14 -84 -33 -92 -41
-11 -11 -16 -41 -17 -104 -2 -77 0 -90 16 -102 15 -11 72 -14 259 -15 133 0
403 -4 601 -8 348 -8 569 -1 588 18 5 5 25 56 44 113 36 107 35 98 59 465 5
85 4 116 -6 128 -18 21 -202 22 -223 0 -9 -8 -61 -103 -117 -210 l-101 -195
-233 0 -233 0 4 168 c5 197 6 134 -3 709 l-6 462 38 9 c22 6 74 18 117 28 43
10 85 23 93 29 10 7 17 38 21 100 5 81 3 92 -14 107 -17 16 -58 18 -449 20
-381 3 -431 1 -445 -13z"/>
<path d="M2989 23983 c-324 -3 -357 -5 -371 -21 -21 -24 -42 -176 -28 -201 11
-22 53 -36 138 -47 28 -4 52 -9 53 -13 1 -16 11 -560 10 -591 0 -19 -2 -181
-4 -360 -2 -179 -4 -348 -5 -377 l-2 -51 -75 -23 c-41 -12 -81 -29 -88 -38
-21 -23 -30 -183 -13 -207 13 -17 36 -18 412 -15 332 2 402 5 415 17 10 9 19
40 24 77 3 34 9 74 12 88 8 41 -23 65 -103 78 -38 7 -76 14 -85 17 -14 4 -16
70 -21 622 -3 339 -3 648 1 686 l6 69 79 27 c46 15 84 34 92 46 6 10 15 56 18
101 6 74 4 85 -14 103 -14 14 -31 19 -57 18 -21 -2 -198 -4 -394 -5z"/>
<path d="M6785 23973 c-25 -24 -43 -221 -40 -432 2 -184 5 -206 21 -218 19
-14 190 -19 210 -5 6 4 43 81 82 172 45 106 77 167 89 171 10 4 61 8 114 8
l97 1 6 -282 c3 -156 5 -458 4 -671 l-3 -388 -25 -5 c-36 -8 -142 -54 -161
-70 -9 -8 -21 -48 -28 -94 -21 -130 -59 -120 449 -120 333 0 430 3 438 13 6 7
14 51 18 98 8 105 4 111 -103 133 -129 28 -120 16 -128 158 -4 68 -2 204 4
303 7 116 8 249 2 375 -5 107 -6 277 -3 378 l5 182 51 0 c28 0 81 -3 117 -6
l67 -7 35 -71 c19 -39 52 -115 72 -169 21 -55 45 -102 55 -107 10 -6 59 -10
109 -10 131 0 125 -10 118 229 -7 201 -31 398 -52 428 -12 16 -73 17 -811 17
-596 1 -801 -2 -809 -11z"/>
<path d="M9293 23981 c-26 -12 -30 -24 -38 -131 -8 -105 -7 -107 108 -129 l82
-17 8 -222 c5 -122 5 -302 0 -399 -6 -134 -5 -199 5 -263 13 -82 12 -226 -4
-421 l-6 -76 -83 -27 c-95 -30 -93 -28 -105 -144 -6 -61 -4 -82 7 -101 15 -23
17 -24 107 -15 50 4 109 7 131 6 22 -1 309 -5 637 -8 592 -5 597 -5 607 15 19
34 59 219 75 345 17 129 12 339 -8 355 -6 5 -50 11 -99 14 -72 4 -91 2 -106
-12 -37 -33 -125 -189 -152 -270 -45 -133 -44 -132 -142 -125 -56 4 -111 1
-173 -10 -58 -10 -113 -14 -151 -10 l-61 7 -7 176 c-6 145 -8 435 -3 591 1 19
-2 123 -6 230 -4 107 -4 231 1 275 l8 80 119 26 c75 17 124 33 132 43 18 25
28 179 14 206 -12 22 -13 22 -173 13 -192 -10 -271 -10 -517 0 -112 4 -194 4
-207 -2z"/>
<path d="M11713 23984 c-33 -8 -40 -23 -47 -110 -8 -104 0 -115 110 -144 l81
-21 5 -242 c3 -133 3 -444 -1 -692 l-6 -450 -85 -28 c-46 -15 -88 -33 -92 -40
-13 -21 -10 -193 5 -205 13 -11 530 -17 1138 -14 270 2 359 5 367 15 30 37 92
418 92 568 0 63 -12 69 -138 69 -82 0 -101 -3 -114 -17 -8 -10 -53 -87 -99
-170 l-84 -153 -258 0 -258 0 2 103 c1 56 -1 174 -6 262 l-8 160 286 0 c248 0
288 2 302 16 11 11 19 52 27 143 10 115 10 128 -6 144 -15 15 -51 18 -309 22
l-292 5 -3 232 -2 232 202 2 c112 1 225 2 252 3 l48 1 67 -142 c36 -78 72
-148 79 -155 9 -9 43 -12 115 -10 137 4 137 3 137 171 0 69 -7 185 -15 256 -8
72 -15 135 -15 142 0 6 -8 19 -17 28 -14 15 -36 17 -152 14 -75 -1 -395 1
-711 4 -316 3 -585 4 -597 1z"/>
<path d="M10515 20005 c-115 -15 -263 -17 -385 -5 -62 6 -116 3 -197 -8 -104
-14 -126 -14 -280 1 -217 22 -243 22 -344 -8 -100 -29 -201 -32 -350 -10 -76
12 -121 13 -182 6 -130 -15 -541 -6 -607 13 -73 21 -132 20 -230 -3 -81 -20
-82 -20 -274 2 -192 21 -193 21 -312 2 -138 -22 -285 -25 -506 -8 -128 9 -175
9 -250 -2 -174 -26 -248 -28 -383 -12 -72 9 -222 18 -334 22 -168 5 -217 3
-285 -11 -79 -16 -83 -16 -157 4 -72 20 -93 21 -405 16 -181 -2 -367 -9 -414
-15 -68 -8 -101 -7 -165 6 -104 20 -126 19 -229 -5 -81 -20 -90 -20 -179 -6
-88 15 -100 14 -196 -4 -84 -17 -114 -18 -164 -10 -80 13 -161 13 -247 -1 -54
-8 -111 -7 -247 5 -196 16 -734 15 -1053 -3 -96 -5 -213 -8 -260 -5 -47 2
-173 9 -281 15 -145 7 -218 7 -280 -1 -75 -10 -95 -9 -194 11 l-110 22 -95
-20 c-94 -19 -97 -19 -180 0 -75 16 -99 17 -200 8 -80 -7 -146 -7 -218 0 -77
8 -112 7 -140 -1 -88 -29 -141 -101 -142 -193 0 -76 43 -143 115 -180 46 -23
273 -40 375 -28 73 8 99 6 187 -12 95 -20 108 -20 175 -7 92 18 154 18 245 0
60 -12 92 -12 180 -2 81 9 140 9 233 1 82 -7 270 -9 545 -5 870 14 907 14
1090 -2 146 -12 199 -12 279 -2 76 9 122 9 206 -1 94 -11 118 -10 198 6 78 15
104 16 167 6 104 -15 147 -14 238 8 71 17 85 17 150 5 85 -16 153 -18 228 -4
30 5 189 11 354 14 l300 5 102 -27 103 -27 107 23 c95 19 128 21 278 16 94 -3
224 -12 290 -20 131 -17 275 -13 445 12 78 11 118 11 225 1 178 -16 408 -13
525 8 92 16 101 16 303 -6 l207 -23 88 21 87 22 94 -25 c86 -22 101 -23 180
-14 50 7 148 8 236 5 82 -4 178 -2 213 3 43 6 88 5 150 -4 48 -8 145 -14 215
-14 108 0 142 4 218 26 l89 25 190 -19 c179 -18 196 -18 293 -3 78 12 128 14
212 8 61 -4 189 -4 285 1 96 6 290 8 430 5 140 -2 323 -5 405 -6 102 -1 179
-8 240 -21 85 -18 96 -18 186 -4 90 15 103 15 200 -3 102 -19 105 -19 179 0
42 11 86 24 100 29 15 6 49 4 94 -5 86 -17 156 -18 216 -4 25 6 91 15 148 21
93 8 115 7 224 -15 118 -25 123 -25 219 -9 54 8 104 12 110 8 16 -10 5 -162
-22 -293 l-21 -103 21 -112 c49 -265 51 -398 9 -551 l-32 -116 27 -122 c36
-168 41 -430 10 -552 -27 -103 -37 -287 -22 -385 6 -42 13 -232 14 -435 3
-357 19 -770 31 -812 3 -12 -6 -61 -20 -112 -31 -106 -31 -125 -9 -249 16 -88
16 -115 0 -435 -22 -441 -22 -455 8 -552 33 -108 33 -209 0 -330 -30 -108 -31
-139 -6 -247 30 -131 33 -216 15 -447 -12 -171 -13 -238 -5 -326 16 -164 14
-246 -10 -338 -19 -71 -22 -114 -24 -322 -2 -237 -2 -241 26 -335 l28 -95 -4
-340 c-2 -187 -6 -347 -9 -355 -9 -27 -28 -381 -27 -515 0 -71 6 -176 12 -232
9 -84 8 -119 -5 -202 -16 -97 -16 -105 9 -295 25 -191 25 -198 9 -283 -11 -61
-14 -111 -10 -163 26 -301 26 -312 6 -520 -29 -314 -29 -972 0 -1149 6 -40 9
-92 6 -115 -10 -65 -27 -695 -24 -871 1 -88 2 -187 1 -220 -7 -420 -5 -453 21
-510 72 -157 294 -151 361 9 13 32 16 68 14 175 -2 118 -3 571 -2 671 3 159
23 698 28 745 4 38 1 104 -9 176 -9 64 -16 161 -16 215 1 54 1 227 0 384 0
211 5 335 19 475 15 154 17 220 11 345 -5 86 -12 168 -16 184 -4 15 1 76 12
138 l18 110 -24 197 c-24 184 -24 202 -11 291 13 83 12 121 -1 310 -17 221
-14 333 12 555 7 55 14 271 15 480 l4 380 -28 90 c-26 85 -27 100 -25 270 1
147 5 195 23 262 24 93 28 229 10 407 -8 87 -7 155 4 311 16 214 10 408 -16
515 -12 50 -12 61 10 135 19 66 23 104 23 224 0 127 -3 153 -26 228 l-27 84
18 384 c16 332 17 396 5 471 -13 83 -13 92 9 176 19 71 22 103 17 161 -17 199
-28 478 -31 812 -1 222 -7 406 -15 459 -14 104 -8 192 25 326 21 91 22 105 15
325 -6 153 -14 254 -25 301 -16 70 -16 72 10 168 l27 98 -11 205 c-6 113 -18
246 -28 296 -15 84 -15 97 0 176 39 204 30 508 -17 601 -37 75 -86 98 -242
112 -105 9 -150 9 -231 -2 -88 -11 -108 -11 -173 4 -97 22 -326 22 -436 0 -74
-15 -87 -15 -158 0 -106 22 -148 20 -245 -9 -83 -25 -84 -25 -176 -8 -83 14
-102 15 -188 2 -88 -14 -101 -13 -179 4 -66 15 -108 17 -203 13 -71 -3 -159 0
-215 7 -64 9 -119 10 -170 4 -64 -7 -276 -3 -313 7 -7 2 -57 -2 -112 -9z"/>
<path d="M188 17671 c-58 -19 -97 -52 -123 -105 -24 -48 -26 -66 -31 -232 -5
-137 -1 -235 15 -419 15 -181 18 -257 11 -310 -5 -38 -9 -155 -10 -260 0 -104
-5 -253 -11 -330 -10 -123 -9 -162 9 -319 20 -178 20 -180 0 -260 -27 -116
-34 -307 -15 -426 31 -184 31 -452 3 -783 l-25 -298 19 -190 c20 -190 20 -192
0 -365 -24 -207 -25 -255 -6 -354 11 -56 13 -124 10 -265 -4 -131 -1 -221 8
-290 12 -84 12 -112 0 -175 -8 -46 -11 -119 -9 -190 3 -63 0 -164 -6 -223 -8
-80 -8 -133 1 -205 10 -81 10 -111 -3 -182 -20 -113 -19 -140 10 -238 21 -71
23 -91 14 -135 -36 -191 -38 -354 -6 -461 19 -65 22 -87 15 -135 -5 -31 -9
-113 -8 -183 0 -93 -5 -149 -20 -213 -29 -124 -29 -500 0 -670 26 -149 25
-217 -2 -336 l-21 -96 25 -100 c24 -98 25 -102 10 -194 -13 -86 -13 -102 3
-189 17 -94 17 -96 -5 -175 -20 -71 -22 -93 -15 -190 4 -60 7 -114 7 -120 1
-5 -5 -57 -12 -115 -12 -97 -11 -112 9 -209 30 -147 30 -419 0 -556 -20 -93
-21 -98 -4 -193 27 -155 31 -414 10 -574 -13 -91 -19 -200 -19 -343 -1 -228
18 -707 29 -724 3 -6 -4 -109 -16 -228 -20 -204 -20 -234 -9 -458 17 -346 22
-388 54 -435 14 -22 45 -50 69 -62 40 -22 51 -23 225 -20 101 2 247 -2 324 -9
110 -9 162 -8 235 1 82 11 108 10 201 -5 105 -17 109 -17 207 2 91 19 108 19
190 7 82 -12 100 -11 206 8 l117 21 288 -21 c267 -19 295 -20 374 -5 78 14 95
13 205 -3 111 -16 157 -16 625 -5 278 7 537 16 575 20 39 5 108 4 155 -1 55
-6 155 -5 285 3 197 11 201 11 285 -12 81 -22 101 -24 410 -24 234 -1 347 3
405 13 56 10 118 12 210 7 92 -4 152 -2 206 8 62 11 93 11 165 2 49 -7 142
-16 206 -20 103 -6 129 -4 210 15 90 22 96 22 184 7 72 -12 108 -13 180 -5 74
9 104 8 182 -7 80 -15 164 -17 615 -19 509 -1 524 0 617 22 86 20 118 22 384
22 171 0 324 -5 372 -12 61 -9 106 -9 176 -1 87 10 100 9 199 -15 l107 -26 98
23 99 23 82 -21 c102 -26 123 -26 230 1 80 20 94 20 187 9 72 -8 125 -9 184
-2 71 9 98 7 179 -9 119 -25 294 -26 418 -4 74 14 107 15 190 7 73 -8 125 -8
190 1 78 10 102 9 175 -6 113 -23 136 -22 244 6 139 37 208 41 318 17 79 -17
130 -20 336 -20 153 0 271 5 318 13 62 11 85 11 146 -1 40 -8 156 -17 258 -20
367 -9 332 -11 373 19 57 44 80 85 85 148 7 103 -49 184 -143 208 -74 19 -250
34 -330 29 -57 -3 -113 1 -193 16 -110 21 -115 21 -215 4 -140 -24 -467 -24
-564 -1 -102 25 -321 21 -435 -8 -86 -21 -88 -21 -185 -4 -87 15 -109 16 -193
4 -54 -8 -117 -10 -145 -7 -86 12 -197 10 -278 -6 -109 -21 -216 -19 -337 6
-92 19 -115 20 -204 10 -82 -8 -121 -7 -205 5 -102 15 -107 15 -196 -7 l-92
-22 -86 21 c-106 27 -119 27 -219 1 l-81 -20 -92 22 c-88 21 -99 22 -207 10
-94 -11 -128 -10 -203 1 -62 10 -121 12 -190 8 -55 -4 -188 -5 -295 -2 -184 4
-202 3 -329 -23 l-133 -27 -457 5 c-381 4 -467 8 -526 22 -56 14 -95 16 -200
11 -94 -5 -156 -3 -220 8 -94 15 -123 13 -245 -19 -56 -15 -73 -14 -250 5
-181 20 -193 20 -287 4 -82 -14 -114 -15 -199 -6 -84 9 -116 9 -180 -3 -52
-10 -170 -17 -362 -20 -278 -5 -286 -4 -382 20 -111 28 -168 30 -389 14 -104
-7 -180 -8 -252 0 -67 6 -131 7 -179 1 -77 -10 -214 -15 -750 -25 -253 -5
-321 -4 -395 9 -107 19 -185 19 -283 2 -62 -11 -99 -11 -265 5 -243 23 -411
24 -513 3 -67 -14 -93 -15 -183 -4 -95 10 -116 10 -196 -7 -86 -18 -94 -18
-185 -2 -85 16 -105 16 -190 4 -70 -10 -150 -12 -305 -7 l-210 7 -8 175 c-6
145 -4 212 13 392 17 174 19 233 11 295 -12 93 -26 475 -26 698 1 102 8 205
19 285 16 103 18 159 13 321 -3 107 -11 235 -18 285 -10 77 -10 100 4 164 24
108 21 487 -3 618 -17 85 -17 103 -4 185 10 72 11 112 3 184 -10 86 -9 96 15
181 31 107 31 130 7 240 -16 73 -16 91 -5 155 18 102 17 146 -7 234 l-21 77
21 95 c21 94 21 100 6 241 -8 80 -20 165 -25 190 -5 25 -9 134 -10 242 0 164
3 212 20 285 16 65 20 118 19 209 0 68 5 170 12 228 12 104 12 107 -14 195
-32 107 -33 158 -7 316 25 154 25 184 -3 281 -23 78 -23 82 -8 170 13 77 13
107 2 205 -10 88 -11 132 -2 194 7 46 9 121 5 180 -5 71 -2 129 10 202 15 93
15 110 0 215 -13 88 -15 156 -10 308 4 155 2 212 -11 283 -15 83 -15 97 6 285
l22 197 -20 195 -19 195 24 290 c21 244 24 324 19 505 -4 118 -13 257 -21 307
-20 133 -18 208 12 338 l26 115 -22 206 c-16 152 -20 226 -14 283 4 42 7 157
5 256 -1 119 3 225 14 314 15 124 15 143 -1 275 -11 97 -17 231 -18 433 l-2
291 -26 40 c-15 22 -42 49 -62 61 -39 24 -117 35 -158 22z"/>
<path d="M7050 17210 c-157 -5 -169 -7 -245 -37 -44 -18 -120 -40 -170 -49
-73 -13 -108 -26 -185 -69 -149 -83 -233 -123 -337 -160 -81 -30 -107 -45
-167 -99 -39 -35 -98 -77 -131 -93 l-59 -30 33 -17 c33 -17 33 -17 104 20 59
31 103 43 261 74 166 33 204 37 288 32 70 -3 122 0 188 13 78 15 116 17 253
10 89 -5 227 -9 307 -10 116 -2 159 -6 215 -23 48 -15 96 -22 155 -22 47 0
144 -9 215 -20 72 -11 161 -23 198 -26 56 -5 68 -9 65 -22 -3 -15 -26 -18
-188 -22 -102 -3 -237 -2 -301 3 -75 5 -141 4 -185 -2 -38 -6 -298 -16 -579
-21 -472 -9 -852 -24 -863 -34 -8 -9 112 -137 210 -226 54 -48 127 -123 162
-167 51 -62 85 -92 163 -141 80 -51 110 -77 161 -142 35 -44 126 -139 203
-212 172 -164 258 -270 303 -374 18 -44 58 -128 88 -189 53 -104 56 -115 63
-210 3 -55 17 -137 30 -183 13 -45 27 -122 30 -170 3 -48 18 -136 32 -196 25
-103 25 -114 14 -215 -17 -161 7 -440 50 -571 l32 -96 -58 -100 c-32 -54 -60
-101 -61 -103 -2 -2 -48 -12 -103 -21 l-100 -17 -101 39 c-55 21 -137 60 -180
88 -51 31 -117 60 -179 80 -76 23 -115 42 -177 87 -43 31 -115 71 -159 89
-191 77 -447 200 -533 256 -52 33 -140 80 -196 105 -183 79 -303 205 -506 535
l-111 178 -20 118 c-11 64 -29 151 -39 192 -11 42 -22 125 -26 185 -6 108 -5
114 55 385 75 337 119 462 201 575 32 44 73 116 91 160 18 44 61 121 96 171
l62 92 -28 4 c-41 6 -135 -52 -246 -152 -49 -44 -104 -91 -122 -103 -22 -15
-41 -42 -59 -87 -15 -36 -49 -100 -76 -142 l-50 -77 -8 -173 c-4 -96 -20 -248
-34 -343 l-27 -170 -48 -71 c-38 -55 -53 -88 -66 -150 -12 -53 -42 -128 -92
-229 -40 -82 -83 -181 -94 -220 -82 -282 -141 -415 -229 -515 -60 -67 -132
-198 -144 -260 -4 -19 -23 -93 -43 -165 -30 -108 -44 -142 -84 -200 -41 -59
-52 -84 -67 -160 -11 -51 -33 -118 -52 -155 l-33 -65 11 -93 c11 -85 9 -114
-19 -343 l-32 -250 22 -74 c25 -87 51 -218 51 -260 0 -16 -7 -62 -17 -102 -16
-70 -16 -75 6 -173 15 -69 24 -149 28 -253 5 -139 8 -158 35 -222 30 -70 66
-215 88 -355 7 -41 27 -108 45 -150 18 -41 47 -143 65 -225 58 -271 77 -333
125 -400 24 -33 62 -98 84 -145 23 -46 72 -123 110 -170 154 -192 241 -320
275 -404 46 -115 188 -303 288 -381 50 -40 86 -78 118 -128 26 -40 76 -99 112
-132 36 -33 117 -123 181 -200 116 -140 194 -212 317 -295 79 -53 197 -161
276 -253 102 -118 251 -201 613 -339 256 -98 351 -127 509 -158 93 -18 110
-25 180 -74 60 -41 96 -58 162 -75 123 -32 256 -114 323 -198 39 -51 64 -71
121 -100 39 -20 129 -83 199 -140 l128 -104 140 10 c77 6 164 18 193 27 52 16
54 18 70 73 10 31 31 86 48 123 l31 67 -20 73 c-26 97 -17 184 41 385 62 212
105 305 171 373 60 61 69 81 121 275 36 133 73 211 172 367 38 60 51 92 61
150 8 40 44 150 82 245 44 111 85 236 113 350 45 176 71 252 139 408 23 53 37
104 42 150 4 39 17 108 30 156 14 47 27 123 31 170 13 168 61 440 94 523 l31
79 -23 88 -22 88 27 85 c25 76 28 104 34 268 3 108 1 213 -5 256 -7 48 -7 104
-1 163 10 100 -5 188 -61 345 -28 81 -29 83 -16 170 13 88 13 90 -14 164 -15
41 -35 113 -45 160 -10 47 -60 192 -111 323 -68 171 -98 263 -109 330 -16 89
-20 97 -110 239 -75 118 -98 164 -115 227 -18 66 -30 89 -76 142 -30 35 -91
131 -136 212 -79 142 -87 152 -159 208 -63 49 -90 81 -170 197 -74 109 -106
148 -149 178 -30 22 -118 100 -195 175 -154 150 -362 309 -493 378 -60 30 -95
58 -133 101 -47 52 -61 61 -140 90 -94 33 -161 77 -277 177 -41 35 -92 73
-115 85 l-42 22 120 12 c66 7 157 19 202 28 127 24 394 93 475 122 40 14 130
45 200 69 254 86 592 278 712 403 l39 41 -21 75 c-29 109 -88 176 -197 226
-107 49 -248 95 -370 120 -115 24 -228 63 -369 127 -77 36 -137 54 -280 85
-159 34 -372 61 -431 56 -11 -1 -94 -5 -185 -8z"/>
<path d="M5590 16516 c-62 -21 -68 -26 -116 -97 -28 -41 -65 -109 -82 -151
-18 -43 -59 -115 -92 -161 -78 -109 -104 -187 -180 -525 l-60 -272 9 -103 c5
-56 21 -149 35 -207 14 -58 28 -131 32 -163 6 -51 19 -77 106 -215 196 -308
285 -401 455 -475 54 -24 137 -69 186 -100 53 -34 193 -103 355 -175 195 -86
287 -132 340 -171 57 -42 97 -61 175 -86 65 -20 131 -50 182 -82 44 -27 112
-61 151 -75 61 -23 77 -25 117 -16 39 8 50 16 70 50 l24 41 -24 76 c-35 107
-60 423 -46 570 9 95 8 113 -13 195 -12 50 -25 134 -29 186 -4 52 -18 133 -31
179 -13 47 -27 128 -30 180 -6 89 -10 102 -51 176 -25 44 -62 120 -83 169 -46
109 -124 211 -229 299 -90 77 -197 188 -261 271 -33 43 -73 77 -146 125 -75
49 -116 84 -158 136 -32 39 -131 140 -220 227 -136 131 -173 161 -231 187 -37
17 -73 31 -79 30 -6 0 -40 -11 -76 -23z m169 -525 c47 -54 90 -119 123 -184
27 -56 76 -140 108 -187 110 -165 160 -251 196 -337 44 -109 120 -252 189
-359 96 -149 162 -269 200 -370 21 -54 58 -130 83 -169 47 -73 202 -343 202
-351 0 -3 -37 24 -82 58 -107 82 -202 178 -292 297 -65 86 -116 164 -317 490
-32 52 -73 129 -90 170 -17 42 -80 177 -139 301 -135 283 -202 451 -240 601
-17 65 -30 123 -30 130 0 15 -3 18 89 -90z"/>
<path d="M9475 2083 c-103 -9 -252 -47 -332 -84 -164 -75 -358 -288 -440 -483
-19 -45 -48 -128 -64 -186 -28 -99 -30 -116 -31 -286 l0 -180 52 -175 c29 -96
57 -183 63 -194 5 -10 41 -61 78 -112 97 -131 228 -237 352 -286 176 -69 385
-105 518 -88 121 16 251 49 350 88 180 71 380 283 463 488 53 132 69 236 69
465 0 192 -1 197 -36 330 -53 198 -59 211 -147 320 -92 114 -222 224 -343 290
-71 38 -96 45 -245 71 -157 27 -209 31 -307 22z m182 -349 c79 -24 93 -32 162
-98 65 -60 82 -84 114 -156 21 -47 52 -134 69 -195 l30 -110 -5 -205 c-10
-346 -63 -495 -216 -598 -13 -9 -58 -21 -100 -27 -64 -9 -93 -8 -181 8 l-105
18 -73 72 c-58 57 -84 92 -122 168 -45 89 -50 104 -66 235 -36 282 -18 517 53
699 32 83 40 95 97 142 51 42 74 54 132 66 80 18 95 17 211 -19z"/>
<path d="M280 2053 c-84 -3 -119 -8 -131 -19 -12 -11 -19 -40 -24 -105 -9
-113 -4 -120 114 -149 l88 -21 -3 -706 c-2 -388 -7 -710 -11 -714 -4 -4 -37
-15 -73 -24 -109 -28 -110 -29 -110 -144 0 -81 3 -101 18 -113 25 -22 200 -28
547 -19 160 4 333 4 385 1 138 -10 556 2 570 16 26 26 72 291 95 549 18 199
20 195 -113 195 -53 0 -103 -4 -110 -9 -8 -5 -42 -60 -76 -122 -34 -63 -86
-156 -116 -206 l-53 -93 -233 0 -234 0 0 48 c0 26 0 288 1 582 1 294 1 583 0
642 l-2 106 53 11 c156 33 198 44 207 54 5 7 12 53 16 103 7 86 6 93 -15 114
-20 20 -29 22 -148 19 -70 -1 -217 0 -327 3 -110 3 -252 3 -315 1z"/>
<path d="M2620 2041 c-14 -12 -19 -36 -24 -107 -7 -120 -3 -126 112 -150 l89
-18 6 -229 c6 -244 0 -1068 -9 -1153 l-5 -50 -72 -19 c-106 -28 -117 -42 -117
-158 0 -64 4 -98 13 -104 7 -6 311 -10 783 -12 620 -1 773 1 781 11 5 7 26 87
46 178 27 123 38 201 42 303 9 181 12 177 -136 177 l-108 0 -52 -77 c-28 -42
-75 -119 -103 -172 -46 -86 -54 -96 -79 -95 -15 0 -135 1 -267 2 l-240 2 5
267 4 268 285 0 c349 0 321 -13 334 160 11 148 6 159 -70 171 -29 4 -165 8
-303 8 l-250 1 -8 180 c-5 118 -4 188 3 203 5 13 10 40 10 62 l0 38 253 -4
252 -4 66 -147 c37 -81 75 -153 86 -160 23 -15 216 -2 238 17 21 17 20 236 -1
440 -18 187 -23 194 -113 183 -68 -8 -224 -8 -909 -1 -471 5 -525 4 -542 -11z"/>
<path d="M5207 2042 c-11 -12 -20 -51 -27 -116 -14 -126 -11 -130 121 -154
l94 -18 -3 -114 c-6 -212 -61 -1054 -78 -1181 l-16 -126 -79 -23 c-49 -14 -83
-30 -89 -41 -15 -27 -13 -194 3 -207 7 -6 156 -13 377 -17 315 -6 367 -5 378
7 17 21 35 204 22 228 -12 23 -21 25 -134 40 l-89 12 7 222 c4 121 14 271 22
331 8 61 17 190 21 289 l6 178 58 -158 c32 -88 73 -206 92 -264 19 -58 53
-148 77 -200 23 -52 68 -172 100 -266 31 -94 75 -207 96 -250 l39 -79 172 -3
c184 -3 203 2 203 50 0 29 110 326 161 435 22 48 68 173 101 277 33 104 77
224 97 265 21 42 46 97 56 124 10 26 19 46 21 44 6 -5 55 -917 52 -955 l-3
-35 -90 -24 c-49 -13 -97 -31 -105 -39 -10 -10 -16 -41 -18 -97 -6 -131 -14
-126 253 -139 231 -10 514 -4 577 13 42 11 42 13 57 122 16 112 13 115 -141
148 -70 15 -66 0 -78 309 -5 129 -16 294 -25 365 -8 72 -15 184 -15 250 0 66
-7 190 -15 275 -7 85 -15 173 -17 194 l-3 39 90 28 c49 15 95 36 102 45 19 26
18 188 -2 204 -21 17 -183 29 -400 29 -226 0 -329 -9 -350 -30 -8 -8 -92 -235
-185 -504 -94 -270 -190 -537 -214 -595 -24 -58 -47 -114 -51 -125 -5 -15 -14
4 -34 70 -15 50 -57 160 -93 245 -36 85 -78 199 -92 254 -14 54 -72 227 -128
383 -81 229 -106 287 -124 295 -14 7 -102 7 -268 -1 -135 -6 -251 -9 -258 -7
-7 3 -58 7 -114 11 -89 5 -102 4 -117 -13z"/>
<path d="M11714 2053 c-200 -3 -234 -6 -245 -20 -10 -11 -14 -47 -14 -117 l0
-101 100 -40 100 -40 3 -660 c1 -363 -2 -678 -6 -699 -7 -39 -8 -40 -87 -63
-44 -14 -86 -32 -92 -41 -8 -10 -13 -49 -13 -108 0 -73 3 -94 17 -105 13 -11
86 -14 379 -14 431 0 398 -10 408 126 8 107 5 110 -131 141 l-101 22 1 449 2
449 28 -34 c16 -18 76 -96 133 -173 58 -77 140 -187 184 -245 81 -107 184
-247 343 -470 114 -158 195 -258 219 -271 24 -13 306 0 315 14 3 6 7 368 9
806 1 438 3 819 3 847 l1 50 75 24 c41 13 81 31 89 39 8 9 16 53 20 103 11
137 38 128 -379 128 -408 0 -379 9 -388 -121 -3 -46 -1 -91 4 -101 9 -16 41
-28 157 -58 l42 -11 0 -61 c0 -34 1 -240 3 -460 1 -219 -1 -397 -5 -396 -12 5
-250 326 -328 443 -101 151 -290 405 -367 494 -35 40 -93 117 -127 171 -60 91
-82 113 -109 108 -7 -2 -116 -4 -243 -5z"/>
</g>
</svg>
